# xmcd CD database file
#
# Track frame offsets:
#	150
#	16398
#	41126
#	66310
#	87765
#	96179
#	116081
#	130891
#	148762
#	165872
#	185240
#
# Disc length: 2644 seconds
#
# Revision: 1
# Processed by: cddbd v1.5.2PL0 Copyright (c) Steve Scherf et al.
# Submitted via: CDex 1.70beta2
#
DISCID=9a0a520b
DTITLE=Sheila Landis - Bebop Angel
DYEAR=2002
DGENRE=Jazz Vocal
TTITLE0=Schemes of Mad September
TTITLE1=Ordinary Rain
TTITLE2=She Has Ended It for Us
TTITLE3=Cleans Weep
TTITLE4=Rainflower
TTITLE5=I Wanto to Join Their Song
TTITLE6=Sax Billy
TTITLE7=Nightwalking
TTITLE8=Lonely One
TTITLE9=I Try to Pretend
TTITLE10=My Shining Hour
EXTD=YEAR: 2002
EXTT0=
EXTT1=
EXTT2=
EXTT3=
EXTT4=
EXTT5=
EXTT6=
EXTT7=
EXTT8=
EXTT9=
EXTT10=
PLAYORDER=
